<mxfile host="app.diagrams.net" modified="2021-05-26T16:51:53.420Z" agent="5.0 (Windows NT 10.0; Win64; x64) AppleWebKit/537.36 (KHTML, like Gecko) Chrome/90.0.4430.212 Safari/537.36" etag="wi85bll3_kx1DMP6qlH0" version="14.7.2" type="github">
  <diagram id="UgDtybOsg_Klh0VlVjUq" name="Page-1">
    <mxGraphModel dx="1038" dy="592" grid="1" gridSize="10" guides="1" tooltips="1" connect="1" arrows="1" fold="1" page="1" pageScale="1" pageWidth="850" pageHeight="1100" math="0" shadow="0">
      <root>
        <mxCell id="0" />
        <mxCell id="1" parent="0" />
        <mxCell id="eNfK-czBrbOIE_k3X7k1-1" value="&lt;b&gt;&lt;font style=&quot;font-size: 16px&quot;&gt;Warstwa aplikacji&lt;/font&gt;&lt;/b&gt;" style="rounded=1;whiteSpace=wrap;html=1;strokeWidth=2;fillColor=#FF73FA;" parent="1" vertex="1">
          <mxGeometry x="200" y="40" width="200" height="40" as="geometry" />
        </mxCell>
        <mxCell id="eNfK-czBrbOIE_k3X7k1-4" value="&lt;b&gt;&lt;font style=&quot;font-size: 16px&quot;&gt;Warstwa prezentacji&lt;/font&gt;&lt;/b&gt;" style="rounded=1;whiteSpace=wrap;html=1;strokeWidth=2;fillColor=#908CFF;" parent="1" vertex="1">
          <mxGeometry x="200" y="100" width="200" height="40" as="geometry" />
        </mxCell>
        <mxCell id="eNfK-czBrbOIE_k3X7k1-5" value="&lt;b&gt;&lt;font style=&quot;font-size: 16px&quot;&gt;Warstwa sesji&lt;/font&gt;&lt;/b&gt;" style="rounded=1;whiteSpace=wrap;html=1;strokeWidth=2;fillColor=#33FFFF;" parent="1" vertex="1">
          <mxGeometry x="200" y="160" width="200" height="40" as="geometry" />
        </mxCell>
        <mxCell id="eNfK-czBrbOIE_k3X7k1-6" value="&lt;font size=&quot;1&quot;&gt;&lt;b style=&quot;font-size: 16px&quot;&gt;Warstwa transportowa&lt;/b&gt;&lt;/font&gt;" style="rounded=1;whiteSpace=wrap;html=1;strokeWidth=2;fillColor=#33FF33;" parent="1" vertex="1">
          <mxGeometry x="200" y="220" width="200" height="40" as="geometry" />
        </mxCell>
        <mxCell id="eNfK-czBrbOIE_k3X7k1-7" value="&lt;font style=&quot;font-size: 17px&quot;&gt;&lt;b&gt;Warstwa sieciowa&lt;/b&gt;&lt;/font&gt;" style="rounded=1;whiteSpace=wrap;html=1;strokeWidth=2;fillColor=#FFFF66;" parent="1" vertex="1">
          <mxGeometry x="200" y="280" width="200" height="40" as="geometry" />
        </mxCell>
        <mxCell id="eNfK-czBrbOIE_k3X7k1-8" value="&lt;b&gt;&lt;font style=&quot;font-size: 16px&quot;&gt;Warstwa łącza danych&lt;/font&gt;&lt;/b&gt;" style="rounded=1;whiteSpace=wrap;html=1;strokeWidth=2;fillColor=#FFB366;" parent="1" vertex="1">
          <mxGeometry x="200" y="340" width="200" height="40" as="geometry" />
        </mxCell>
        <mxCell id="eNfK-czBrbOIE_k3X7k1-9" value="&lt;b&gt;&lt;font style=&quot;font-size: 16px&quot;&gt;Warstwa fizyczna&lt;/font&gt;&lt;/b&gt;" style="rounded=1;whiteSpace=wrap;html=1;strokeWidth=2;fillColor=#FF6666;" parent="1" vertex="1">
          <mxGeometry x="200" y="400" width="200" height="40" as="geometry" />
        </mxCell>
        <mxCell id="eNfK-czBrbOIE_k3X7k1-11" value="" style="strokeWidth=2;html=1;shape=mxgraph.flowchart.annotation_2;align=left;labelPosition=right;pointerEvents=1;fillColor=#908CFF;direction=west;" parent="1" vertex="1">
          <mxGeometry x="410" y="60" width="50" height="120" as="geometry" />
        </mxCell>
        <mxCell id="eNfK-czBrbOIE_k3X7k1-12" value="" style="strokeWidth=2;html=1;shape=mxgraph.flowchart.annotation_2;align=left;labelPosition=right;pointerEvents=1;fillColor=#908CFF;direction=west;" parent="1" vertex="1">
          <mxGeometry x="410" y="300" width="50" height="120" as="geometry" />
        </mxCell>
        <mxCell id="eNfK-czBrbOIE_k3X7k1-13" value="&lt;font style=&quot;font-size: 16px&quot;&gt;Warstwy związane z oprogramowaniem&lt;/font&gt;" style="text;html=1;strokeColor=none;fillColor=none;align=center;verticalAlign=middle;whiteSpace=wrap;rounded=0;" parent="1" vertex="1">
          <mxGeometry x="460" y="68.75" width="150" height="102.5" as="geometry" />
        </mxCell>
        <mxCell id="eNfK-czBrbOIE_k3X7k1-15" value="&lt;font style=&quot;font-size: 16px&quot;&gt;Warstwy związane ze sprzętem&lt;/font&gt;" style="text;html=1;strokeColor=none;fillColor=none;align=center;verticalAlign=middle;whiteSpace=wrap;rounded=0;" parent="1" vertex="1">
          <mxGeometry x="460" y="308.75" width="150" height="102.5" as="geometry" />
        </mxCell>
        <mxCell id="eNfK-czBrbOIE_k3X7k1-16" value="" style="strokeWidth=2;html=1;shape=mxgraph.flowchart.annotation_2;align=left;labelPosition=right;pointerEvents=1;fillColor=#908CFF;direction=west;" parent="1" vertex="1">
          <mxGeometry x="410" y="230" width="50" height="20" as="geometry" />
        </mxCell>
        <mxCell id="eNfK-czBrbOIE_k3X7k1-17" value="&lt;span style=&quot;font-size: 16px&quot;&gt;Serce modelu ISO/OSI&lt;/span&gt;" style="text;html=1;strokeColor=none;fillColor=none;align=center;verticalAlign=middle;whiteSpace=wrap;rounded=0;" parent="1" vertex="1">
          <mxGeometry x="460" y="188.75" width="150" height="102.5" as="geometry" />
        </mxCell>
        <mxCell id="eNfK-czBrbOIE_k3X7k1-19" value="&lt;b&gt;&lt;font style=&quot;font-size: 16px&quot;&gt;1&lt;/font&gt;&lt;/b&gt;" style="rounded=1;whiteSpace=wrap;html=1;strokeWidth=2;fillColor=#FFFFFF;" parent="1" vertex="1">
          <mxGeometry x="160" y="400" width="30" height="40" as="geometry" />
        </mxCell>
        <mxCell id="eNfK-czBrbOIE_k3X7k1-26" value="&lt;b&gt;&lt;font style=&quot;font-size: 16px&quot;&gt;2&lt;/font&gt;&lt;/b&gt;" style="rounded=1;whiteSpace=wrap;html=1;strokeWidth=2;fillColor=#FFFFFF;" parent="1" vertex="1">
          <mxGeometry x="160" y="340" width="30" height="40" as="geometry" />
        </mxCell>
        <mxCell id="eNfK-czBrbOIE_k3X7k1-27" value="&lt;b&gt;&lt;font style=&quot;font-size: 16px&quot;&gt;3&lt;/font&gt;&lt;/b&gt;" style="rounded=1;whiteSpace=wrap;html=1;strokeWidth=2;fillColor=#FFFFFF;" parent="1" vertex="1">
          <mxGeometry x="160" y="280" width="30" height="40" as="geometry" />
        </mxCell>
        <mxCell id="eNfK-czBrbOIE_k3X7k1-28" value="&lt;b&gt;&lt;font style=&quot;font-size: 16px&quot;&gt;4&lt;/font&gt;&lt;/b&gt;" style="rounded=1;whiteSpace=wrap;html=1;strokeWidth=2;fillColor=#FFFFFF;" parent="1" vertex="1">
          <mxGeometry x="160" y="220" width="30" height="40" as="geometry" />
        </mxCell>
        <mxCell id="eNfK-czBrbOIE_k3X7k1-29" value="&lt;b&gt;&lt;font style=&quot;font-size: 16px&quot;&gt;5&lt;/font&gt;&lt;/b&gt;" style="rounded=1;whiteSpace=wrap;html=1;strokeWidth=2;fillColor=#FFFFFF;" parent="1" vertex="1">
          <mxGeometry x="160" y="160" width="30" height="40" as="geometry" />
        </mxCell>
        <mxCell id="eNfK-czBrbOIE_k3X7k1-30" value="&lt;b&gt;&lt;font style=&quot;font-size: 16px&quot;&gt;6&lt;/font&gt;&lt;/b&gt;" style="rounded=1;whiteSpace=wrap;html=1;strokeWidth=2;fillColor=#FFFFFF;" parent="1" vertex="1">
          <mxGeometry x="160" y="100" width="30" height="40" as="geometry" />
        </mxCell>
        <mxCell id="eNfK-czBrbOIE_k3X7k1-31" value="&lt;b&gt;&lt;font style=&quot;font-size: 16px&quot;&gt;7&lt;/font&gt;&lt;/b&gt;" style="rounded=1;whiteSpace=wrap;html=1;strokeWidth=2;fillColor=#FFFFFF;" parent="1" vertex="1">
          <mxGeometry x="160" y="40" width="30" height="40" as="geometry" />
        </mxCell>
        <mxCell id="eNfK-czBrbOIE_k3X7k1-38" value="" style="endArrow=classic;html=1;strokeWidth=1;entryX=0.75;entryY=1;entryDx=0;entryDy=0;exitX=0.75;exitY=0;exitDx=0;exitDy=0;" parent="1" source="eNfK-czBrbOIE_k3X7k1-7" target="eNfK-czBrbOIE_k3X7k1-6" edge="1">
          <mxGeometry width="50" height="50" relative="1" as="geometry">
            <mxPoint x="326" y="350" as="sourcePoint" />
            <mxPoint x="326.20000000000005" y="330.67999999999995" as="targetPoint" />
          </mxGeometry>
        </mxCell>
        <mxCell id="eNfK-czBrbOIE_k3X7k1-39" value="" style="endArrow=classic;html=1;strokeWidth=1;entryX=0.75;entryY=1;entryDx=0;entryDy=0;exitX=0.75;exitY=0;exitDx=0;exitDy=0;" parent="1" source="eNfK-czBrbOIE_k3X7k1-8" target="eNfK-czBrbOIE_k3X7k1-7" edge="1">
          <mxGeometry width="50" height="50" relative="1" as="geometry">
            <mxPoint x="360" y="290" as="sourcePoint" />
            <mxPoint x="360" y="270" as="targetPoint" />
          </mxGeometry>
        </mxCell>
        <mxCell id="eNfK-czBrbOIE_k3X7k1-40" value="" style="endArrow=classic;html=1;strokeWidth=1;entryX=0.75;entryY=1;entryDx=0;entryDy=0;exitX=0.75;exitY=0;exitDx=0;exitDy=0;" parent="1" source="eNfK-czBrbOIE_k3X7k1-9" target="eNfK-czBrbOIE_k3X7k1-8" edge="1">
          <mxGeometry width="50" height="50" relative="1" as="geometry">
            <mxPoint x="370" y="300" as="sourcePoint" />
            <mxPoint x="370" y="280" as="targetPoint" />
          </mxGeometry>
        </mxCell>
        <mxCell id="eNfK-czBrbOIE_k3X7k1-41" value="" style="endArrow=classic;html=1;strokeWidth=1;entryX=0.75;entryY=1;entryDx=0;entryDy=0;exitX=0.75;exitY=0;exitDx=0;exitDy=0;" parent="1" source="eNfK-czBrbOIE_k3X7k1-6" target="eNfK-czBrbOIE_k3X7k1-5" edge="1">
          <mxGeometry width="50" height="50" relative="1" as="geometry">
            <mxPoint x="380" y="310" as="sourcePoint" />
            <mxPoint x="380" y="290" as="targetPoint" />
          </mxGeometry>
        </mxCell>
        <mxCell id="eNfK-czBrbOIE_k3X7k1-42" value="" style="endArrow=classic;html=1;strokeWidth=1;entryX=0.75;entryY=1;entryDx=0;entryDy=0;exitX=0.75;exitY=0;exitDx=0;exitDy=0;" parent="1" source="eNfK-czBrbOIE_k3X7k1-5" target="eNfK-czBrbOIE_k3X7k1-4" edge="1">
          <mxGeometry width="50" height="50" relative="1" as="geometry">
            <mxPoint x="390" y="320" as="sourcePoint" />
            <mxPoint x="390" y="300" as="targetPoint" />
          </mxGeometry>
        </mxCell>
        <mxCell id="eNfK-czBrbOIE_k3X7k1-43" value="" style="endArrow=classic;html=1;strokeWidth=1;entryX=0.75;entryY=1;entryDx=0;entryDy=0;exitX=0.75;exitY=0;exitDx=0;exitDy=0;" parent="1" source="eNfK-czBrbOIE_k3X7k1-4" target="eNfK-czBrbOIE_k3X7k1-1" edge="1">
          <mxGeometry width="50" height="50" relative="1" as="geometry">
            <mxPoint x="400" y="330" as="sourcePoint" />
            <mxPoint x="400" y="310" as="targetPoint" />
          </mxGeometry>
        </mxCell>
        <mxCell id="eNfK-czBrbOIE_k3X7k1-44" value="" style="endArrow=classic;html=1;strokeWidth=1;entryX=0.25;entryY=0;entryDx=0;entryDy=0;exitX=0.25;exitY=1;exitDx=0;exitDy=0;" parent="1" source="eNfK-czBrbOIE_k3X7k1-7" target="eNfK-czBrbOIE_k3X7k1-8" edge="1">
          <mxGeometry width="50" height="50" relative="1" as="geometry">
            <mxPoint x="410" y="340" as="sourcePoint" />
            <mxPoint x="410" y="320" as="targetPoint" />
          </mxGeometry>
        </mxCell>
        <mxCell id="eNfK-czBrbOIE_k3X7k1-45" value="" style="endArrow=classic;html=1;strokeWidth=1;entryX=0.25;entryY=0;entryDx=0;entryDy=0;exitX=0.25;exitY=1;exitDx=0;exitDy=0;" parent="1" source="eNfK-czBrbOIE_k3X7k1-8" target="eNfK-czBrbOIE_k3X7k1-9" edge="1">
          <mxGeometry width="50" height="50" relative="1" as="geometry">
            <mxPoint x="260" y="330" as="sourcePoint" />
            <mxPoint x="260" y="350" as="targetPoint" />
          </mxGeometry>
        </mxCell>
        <mxCell id="eNfK-czBrbOIE_k3X7k1-46" value="" style="endArrow=classic;html=1;strokeWidth=1;entryX=0.25;entryY=0;entryDx=0;entryDy=0;exitX=0.25;exitY=1;exitDx=0;exitDy=0;" parent="1" source="eNfK-czBrbOIE_k3X7k1-6" target="eNfK-czBrbOIE_k3X7k1-7" edge="1">
          <mxGeometry width="50" height="50" relative="1" as="geometry">
            <mxPoint x="270" y="340" as="sourcePoint" />
            <mxPoint x="270" y="360" as="targetPoint" />
          </mxGeometry>
        </mxCell>
        <mxCell id="eNfK-czBrbOIE_k3X7k1-47" value="" style="endArrow=classic;html=1;strokeWidth=1;entryX=0.25;entryY=0;entryDx=0;entryDy=0;exitX=0.25;exitY=1;exitDx=0;exitDy=0;" parent="1" source="eNfK-czBrbOIE_k3X7k1-5" target="eNfK-czBrbOIE_k3X7k1-6" edge="1">
          <mxGeometry width="50" height="50" relative="1" as="geometry">
            <mxPoint x="280" y="350" as="sourcePoint" />
            <mxPoint x="280" y="370" as="targetPoint" />
          </mxGeometry>
        </mxCell>
        <mxCell id="eNfK-czBrbOIE_k3X7k1-48" value="" style="endArrow=classic;html=1;strokeWidth=1;entryX=0.25;entryY=0;entryDx=0;entryDy=0;exitX=0.25;exitY=1;exitDx=0;exitDy=0;" parent="1" source="eNfK-czBrbOIE_k3X7k1-4" target="eNfK-czBrbOIE_k3X7k1-5" edge="1">
          <mxGeometry width="50" height="50" relative="1" as="geometry">
            <mxPoint x="290" y="360" as="sourcePoint" />
            <mxPoint x="290" y="380" as="targetPoint" />
          </mxGeometry>
        </mxCell>
        <mxCell id="eNfK-czBrbOIE_k3X7k1-49" value="" style="endArrow=classic;html=1;strokeWidth=1;entryX=0.25;entryY=0;entryDx=0;entryDy=0;exitX=0.25;exitY=1;exitDx=0;exitDy=0;" parent="1" source="eNfK-czBrbOIE_k3X7k1-1" target="eNfK-czBrbOIE_k3X7k1-4" edge="1">
          <mxGeometry width="50" height="50" relative="1" as="geometry">
            <mxPoint x="300" y="370" as="sourcePoint" />
            <mxPoint x="300" y="390" as="targetPoint" />
          </mxGeometry>
        </mxCell>
        <mxCell id="eNfK-czBrbOIE_k3X7k1-50" value="" style="endArrow=none;html=1;strokeWidth=1;dashed=1;" parent="1" edge="1">
          <mxGeometry width="50" height="50" relative="1" as="geometry">
            <mxPoint x="200" y="390" as="sourcePoint" />
            <mxPoint x="400" y="390" as="targetPoint" />
          </mxGeometry>
        </mxCell>
        <mxCell id="eNfK-czBrbOIE_k3X7k1-52" value="" style="endArrow=none;html=1;strokeWidth=1;dashed=1;" parent="1" edge="1">
          <mxGeometry width="50" height="50" relative="1" as="geometry">
            <mxPoint x="200" y="329.9999999999999" as="sourcePoint" />
            <mxPoint x="400" y="329.9999999999999" as="targetPoint" />
          </mxGeometry>
        </mxCell>
        <mxCell id="eNfK-czBrbOIE_k3X7k1-53" value="" style="endArrow=none;html=1;strokeWidth=1;dashed=1;" parent="1" edge="1">
          <mxGeometry width="50" height="50" relative="1" as="geometry">
            <mxPoint x="200" y="269.9999999999999" as="sourcePoint" />
            <mxPoint x="400" y="269.9999999999999" as="targetPoint" />
          </mxGeometry>
        </mxCell>
        <mxCell id="eNfK-czBrbOIE_k3X7k1-54" value="" style="endArrow=none;html=1;strokeWidth=1;dashed=1;" parent="1" edge="1">
          <mxGeometry width="50" height="50" relative="1" as="geometry">
            <mxPoint x="200" y="209.9999999999999" as="sourcePoint" />
            <mxPoint x="400" y="209.9999999999999" as="targetPoint" />
          </mxGeometry>
        </mxCell>
        <mxCell id="eNfK-czBrbOIE_k3X7k1-55" value="" style="endArrow=none;html=1;strokeWidth=1;dashed=1;" parent="1" edge="1">
          <mxGeometry width="50" height="50" relative="1" as="geometry">
            <mxPoint x="200" y="149.9999999999999" as="sourcePoint" />
            <mxPoint x="400" y="149.9999999999999" as="targetPoint" />
          </mxGeometry>
        </mxCell>
        <mxCell id="eNfK-czBrbOIE_k3X7k1-56" value="" style="endArrow=none;html=1;strokeWidth=1;dashed=1;" parent="1" edge="1">
          <mxGeometry width="50" height="50" relative="1" as="geometry">
            <mxPoint x="200" y="89.99999999999989" as="sourcePoint" />
            <mxPoint x="400" y="89.99999999999989" as="targetPoint" />
          </mxGeometry>
        </mxCell>
      </root>
    </mxGraphModel>
  </diagram>
</mxfile>
